<?xml version="1.0" standalone="no"?>
<!DOCTYPE svg PUBLIC "-//W3C//DTD SVG 20010904//EN"
 "http://www.w3.org/TR/2001/REC-SVG-20010904/DTD/svg10.dtd">
<svg version="1.0" xmlns="http://www.w3.org/2000/svg"
 width="48.000000pt" height="48.000000pt" viewBox="0 0 48.000000 48.000000"
 preserveAspectRatio="xMidYMid meet">

<g transform="translate(0.000000,48.000000) scale(0.100000,-0.100000)"
fill="#000000" stroke="none">
<path d="M270 413 c-111 -3 -127 -6 -147 -25 -13 -12 -23 -30 -23 -40 0 -17
11 -18 139 -18 114 0 143 3 155 16 9 8 16 21 16 29 0 7 3 20 6 29 4 10 1 15
-7 14 -8 -1 -70 -4 -139 -5z"/>
<path d="M111 244 c-11 -15 -18 -30 -15 -35 3 -5 52 -9 109 -9 110 0 135 9
135 51 0 18 -8 19 -104 19 -101 0 -105 -1 -125 -26z"/>
<path d="M77 110 c-13 -35 -13 -40 -1 -40 36 0 94 46 94 74 0 3 -17 6 -38 6
-36 0 -40 -3 -55 -40z"/>
</g>
</svg>
